<svg width="204" height="19" viewBox="0 0 204 19" fill="none" xmlns="http://www.w3.org/2000/svg">
<path d="M8.864 18V15.408L8.696 14.856V10.32C8.696 9.44 8.432 8.76 7.904 8.28C7.376 7.784 6.576 7.536 5.504 7.536C4.784 7.536 4.072 7.648 3.368 7.872C2.68 8.096 2.096 8.408 1.616 8.808L0.44 6.624C1.128 6.096 1.944 5.704 2.888 5.448C3.848 5.176 4.84 5.04 5.864 5.04C7.72 5.04 9.152 5.488 10.16 6.384C11.184 7.264 11.696 8.632 11.696 10.488V18H8.864ZM4.832 18.168C3.872 18.168 3.032 18.008 2.312 17.688C1.592 17.352 1.032 16.896 0.632 16.32C0.248 15.728 0.0560001 15.064 0.0560001 14.328C0.0560001 13.608 0.224 12.96 0.56 12.384C0.912 11.808 1.48 11.352 2.264 11.016C3.048 10.68 4.088 10.512 5.384 10.512H9.104V12.504H5.6C4.576 12.504 3.888 12.672 3.536 13.008C3.184 13.328 3.008 13.728 3.008 14.208C3.008 14.752 3.224 15.184 3.656 15.504C4.088 15.824 4.688 15.984 5.456 15.984C6.192 15.984 6.848 15.816 7.424 15.48C8.016 15.144 8.44 14.648 8.696 13.992L9.2 15.792C8.912 16.544 8.392 17.128 7.64 17.544C6.904 17.96 5.968 18.168 4.832 18.168ZM20.9936 18.168C19.7616 18.168 18.6496 17.896 17.6576 17.352C16.6816 16.792 15.9136 16.024 15.3536 15.048C14.7936 14.072 14.5136 12.92 14.5136 11.592C14.5136 10.264 14.7936 9.112 15.3536 8.136C15.9136 7.16 16.6816 6.4 17.6576 5.856C18.6496 5.312 19.7616 5.04 20.9936 5.04C22.0656 5.04 23.0256 5.28 23.8736 5.76C24.7216 6.224 25.3936 6.936 25.8896 7.896C26.3856 8.856 26.6336 10.088 26.6336 11.592C26.6336 13.08 26.3936 14.312 25.9136 15.288C25.4336 16.248 24.7696 16.968 23.9216 17.448C23.0736 17.928 22.0976 18.168 20.9936 18.168ZM21.3536 15.6C22.0736 15.6 22.7136 15.44 23.2736 15.12C23.8496 14.8 24.3056 14.336 24.6416 13.728C24.9936 13.12 25.1696 12.408 25.1696 11.592C25.1696 10.76 24.9936 10.048 24.6416 9.456C24.3056 8.848 23.8496 8.384 23.2736 8.064C22.7136 7.744 22.0736 7.584 21.3536 7.584C20.6336 7.584 19.9856 7.744 19.4096 8.064C18.8496 8.384 18.3936 8.848 18.0416 9.456C17.7056 10.048 17.5376 10.76 17.5376 11.592C17.5376 12.408 17.7056 13.12 18.0416 13.728C18.3936 14.336 18.8496 14.8 19.4096 15.12C19.9856 15.44 20.6336 15.6 21.3536 15.6ZM25.2416 18V14.976L25.3616 11.568L25.1216 8.16V0.191999H28.0976V18H25.2416ZM35.4541 18L29.9581 5.184H33.0781L37.8061 16.488H36.2701L41.1661 5.184H44.0461L38.5501 18H35.4541ZM51.5936 18.168C50.1696 18.168 48.9216 17.888 47.8496 17.328C46.7936 16.752 45.9696 15.968 45.3776 14.976C44.8016 13.984 44.5136 12.856 44.5136 11.592C44.5136 10.312 44.7936 9.184 45.3536 8.208C45.9296 7.216 46.7136 6.44 47.7056 5.88C48.7136 5.32 49.8576 5.04 51.1376 5.04C52.3856 5.04 53.4976 5.312 54.4736 5.856C55.4496 6.4 56.2176 7.168 56.7776 8.16C57.3376 9.152 57.6176 10.32 57.6176 11.664C57.6176 11.792 57.6096 11.936 57.5936 12.096C57.5936 12.256 57.5856 12.408 57.5696 12.552H46.8896V10.56H55.9856L54.8096 11.184C54.8256 10.448 54.6736 9.8 54.3536 9.24C54.0336 8.68 53.5936 8.24 53.0336 7.92C52.4896 7.6 51.8576 7.44 51.1376 7.44C50.4016 7.44 49.7536 7.6 49.1936 7.92C48.6496 8.24 48.2176 8.688 47.8976 9.264C47.5936 9.824 47.4416 10.488 47.4416 11.256V11.736C47.4416 12.504 47.6176 13.184 47.9696 13.776C48.3216 14.368 48.8176 14.824 49.4576 15.144C50.0976 15.464 50.8336 15.624 51.6656 15.624C52.3856 15.624 53.0336 15.512 53.6096 15.288C54.1856 15.064 54.6976 14.712 55.1456 14.232L56.7536 16.08C56.1776 16.752 55.4496 17.272 54.5696 17.64C53.7056 17.992 52.7136 18.168 51.5936 18.168ZM67.7713 5.04C68.7953 5.04 69.7073 5.24 70.5073 5.64C71.3233 6.04 71.9633 6.656 72.4273 7.488C72.8913 8.304 73.1233 9.36 73.1233 10.656V18H70.1233V11.04C70.1233 9.904 69.8513 9.056 69.3073 8.496C68.7793 7.936 68.0353 7.656 67.0753 7.656C66.3713 7.656 65.7473 7.8 65.2033 8.088C64.6593 8.376 64.2353 8.808 63.9313 9.384C63.6433 9.944 63.4993 10.656 63.4993 11.52V18H60.4993V5.184H63.3553V8.64L62.8513 7.584C63.2993 6.768 63.9473 6.144 64.7953 5.712C65.6593 5.264 66.6513 5.04 67.7713 5.04ZM81.7529 18.168C80.3449 18.168 79.2569 17.808 78.4889 17.088C77.7209 16.352 77.3369 15.272 77.3369 13.848V2.352H80.3369V13.776C80.3369 14.384 80.4889 14.856 80.7929 15.192C81.1129 15.528 81.5529 15.696 82.1129 15.696C82.7849 15.696 83.3449 15.52 83.7929 15.168L84.6329 17.304C84.2809 17.592 83.8489 17.808 83.3369 17.952C82.8249 18.096 82.2969 18.168 81.7529 18.168ZM75.2249 7.68V5.28H83.7689V7.68H75.2249ZM92.5248 18.168C91.4368 18.168 90.4768 17.968 89.6448 17.568C88.8128 17.152 88.1648 16.528 87.7008 15.696C87.2368 14.848 87.0048 13.784 87.0048 12.504V5.184H90.0048V12.096C90.0048 13.248 90.2608 14.112 90.7728 14.688C91.3008 15.248 92.0448 15.528 93.0048 15.528C93.7088 15.528 94.3168 15.384 94.8288 15.096C95.3568 14.808 95.7648 14.376 96.0528 13.8C96.3568 13.224 96.5088 12.512 96.5088 11.664V5.184H99.5088V18H96.6528V14.544L97.1568 15.6C96.7248 16.432 96.0928 17.072 95.2608 17.52C94.4288 17.952 93.5168 18.168 92.5248 18.168ZM103.437 18V5.184H106.293V8.712L105.957 7.68C106.341 6.816 106.941 6.16 107.757 5.712C108.589 5.264 109.621 5.04 110.853 5.04V7.896C110.725 7.864 110.605 7.848 110.493 7.848C110.381 7.832 110.269 7.824 110.157 7.824C109.021 7.824 108.117 8.16 107.445 8.832C106.773 9.488 106.437 10.472 106.437 11.784V18H103.437ZM119.305 18.168C117.881 18.168 116.633 17.888 115.561 17.328C114.505 16.752 113.681 15.968 113.089 14.976C112.513 13.984 112.225 12.856 112.225 11.592C112.225 10.312 112.505 9.184 113.065 8.208C113.641 7.216 114.425 6.44 115.417 5.88C116.425 5.32 117.569 5.04 118.849 5.04C120.097 5.04 121.209 5.312 122.185 5.856C123.161 6.4 123.929 7.168 124.489 8.16C125.049 9.152 125.329 10.32 125.329 11.664C125.329 11.792 125.321 11.936 125.305 12.096C125.305 12.256 125.297 12.408 125.281 12.552H114.601V10.56H123.697L122.521 11.184C122.537 10.448 122.385 9.8 122.065 9.24C121.745 8.68 121.305 8.24 120.745 7.92C120.201 7.6 119.569 7.44 118.849 7.44C118.113 7.44 117.465 7.6 116.905 7.92C116.361 8.24 115.929 8.688 115.609 9.264C115.305 9.824 115.153 10.488 115.153 11.256V11.736C115.153 12.504 115.329 13.184 115.681 13.776C116.033 14.368 116.529 14.824 117.169 15.144C117.809 15.464 118.545 15.624 119.377 15.624C120.097 15.624 120.745 15.512 121.321 15.288C121.897 15.064 122.409 14.712 122.857 14.232L124.465 16.08C123.889 16.752 123.161 17.272 122.281 17.64C121.417 17.992 120.425 18.168 119.305 18.168ZM128.498 18V1.2H131.066L138.41 13.464H137.066L144.29 1.2H146.858L146.882 18H143.93L143.906 5.832H144.53L138.386 16.08H136.994L130.754 5.832H131.474V18H128.498ZM157.156 18.168C155.732 18.168 154.484 17.888 153.412 17.328C152.356 16.752 151.532 15.968 150.94 14.976C150.364 13.984 150.076 12.856 150.076 11.592C150.076 10.312 150.356 9.184 150.916 8.208C151.492 7.216 152.276 6.44 153.268 5.88C154.276 5.32 155.42 5.04 156.7 5.04C157.948 5.04 159.06 5.312 160.036 5.856C161.012 6.4 161.78 7.168 162.34 8.16C162.9 9.152 163.18 10.32 163.18 11.664C163.18 11.792 163.172 11.936 163.156 12.096C163.156 12.256 163.148 12.408 163.132 12.552H152.452V10.56H161.548L160.372 11.184C160.388 10.448 160.236 9.8 159.916 9.24C159.596 8.68 159.156 8.24 158.596 7.92C158.052 7.6 157.42 7.44 156.7 7.44C155.964 7.44 155.316 7.6 154.756 7.92C154.212 8.24 153.78 8.688 153.46 9.264C153.156 9.824 153.004 10.488 153.004 11.256V11.736C153.004 12.504 153.18 13.184 153.532 13.776C153.884 14.368 154.38 14.824 155.02 15.144C155.66 15.464 156.396 15.624 157.228 15.624C157.948 15.624 158.596 15.512 159.172 15.288C159.748 15.064 160.26 14.712 160.708 14.232L162.316 16.08C161.74 16.752 161.012 17.272 160.132 17.64C159.268 17.992 158.276 18.168 157.156 18.168ZM182.238 5.04C183.262 5.04 184.166 5.24 184.95 5.64C185.75 6.04 186.374 6.656 186.822 7.488C187.27 8.304 187.494 9.36 187.494 10.656V18H184.494V11.04C184.494 9.904 184.246 9.056 183.75 8.496C183.254 7.936 182.542 7.656 181.614 7.656C180.958 7.656 180.374 7.8 179.862 8.088C179.366 8.376 178.974 8.8 178.686 9.36C178.414 9.92 178.278 10.632 178.278 11.496V18H175.278V11.04C175.278 9.904 175.03 9.056 174.534 8.496C174.038 7.936 173.326 7.656 172.398 7.656C171.742 7.656 171.158 7.8 170.646 8.088C170.15 8.376 169.758 8.8 169.47 9.36C169.198 9.92 169.062 10.632 169.062 11.496V18H166.062V5.184H168.918V8.592L168.414 7.584C168.846 6.752 169.47 6.12 170.286 5.688C171.118 5.256 172.062 5.04 173.118 5.04C174.318 5.04 175.358 5.336 176.238 5.928C177.134 6.52 177.726 7.416 178.014 8.616L176.838 8.208C177.254 7.248 177.942 6.48 178.902 5.904C179.862 5.328 180.974 5.04 182.238 5.04ZM197.111 18.168C195.799 18.168 194.631 17.888 193.607 17.328C192.583 16.752 191.775 15.968 191.183 14.976C190.591 13.984 190.295 12.856 190.295 11.592C190.295 10.312 190.591 9.184 191.183 8.208C191.775 7.216 192.583 6.44 193.607 5.88C194.631 5.32 195.799 5.04 197.111 5.04C198.439 5.04 199.615 5.32 200.639 5.88C201.679 6.44 202.487 7.208 203.063 8.184C203.655 9.16 203.951 10.296 203.951 11.592C203.951 12.856 203.655 13.984 203.063 14.976C202.487 15.968 201.679 16.752 200.639 17.328C199.615 17.888 198.439 18.168 197.111 18.168ZM197.111 15.6C197.847 15.6 198.503 15.44 199.079 15.12C199.655 14.8 200.103 14.336 200.423 13.728C200.759 13.12 200.927 12.408 200.927 11.592C200.927 10.76 200.759 10.048 200.423 9.456C200.103 8.848 199.655 8.384 199.079 8.064C198.503 7.744 197.855 7.584 197.135 7.584C196.399 7.584 195.743 7.744 195.167 8.064C194.607 8.384 194.159 8.848 193.823 9.456C193.487 10.048 193.319 10.76 193.319 11.592C193.319 12.408 193.487 13.12 193.823 13.728C194.159 14.336 194.607 14.8 195.167 15.12C195.743 15.44 196.391 15.6 197.111 15.6Z" fill="#7B6D50"/>
</svg>
